<svg xmlns="http://www.w3.org/2000/svg" viewBox="0 0 487.125 487.125"><path d="M459.5 168.562c3.5 3.5 9.1 3.5 12.5 0l12.5-12.5c3.5-3.5 3.5-9.1 0-12.5l-28.3-28.3c-3.5-3.5-9.1-3.5-12.5 0l-12.5 12.5c-3.5 3.5-3.5 9.1 0 12.5l1.2 1.2-8.8 8.8c-22.2-17.6-49.1-29.3-78.6-32.7v-16h9.7c4.9 0 8.8-4 8.8-8.8v-26c0-4.9-4-8.8-8.8-8.8h-56.2c-4.9 0-8.8 4-8.8 8.8v26c0 4.9 4 8.8 8.8 8.8h9.7v16c-29.5 3.5-56.5 15.2-78.6 32.7l-8.8-8.8 1.2-1.2c3.5-3.5 3.5-9.1 0-12.5l-12.5-12.5c-3.5-3.5-9.1-3.5-12.5 0l-28.3 28.3c-3.5 3.5-3.5 9.1 0 12.5l12.5 12.5c3.5 3.5 9.1 3.5 12.5 0l1.2-1.2 8.8 8.8c-21 26.6-33.5 60.2-33.5 96.6 0 86.2 70.2 156.4 156.4 156.4s156.4-70.2 156.4-156.4c0-36.4-12.6-70-33.5-96.6l8.8-8.8 1.2 1.2zm-132.9 224.4c-66.2 0-120.1-53.9-120.1-120.1s53.9-120.1 120.1-120.1 120.1 53.9 120.1 120.1-53.9 120.1-120.1 120.1zM63.5 314.763c-8.6 0-15.5 7-15.5 15.5 0 8.6 7 15.5 15.5 15.5h84.1c1.7 0 3.2-.3 4.7-.8-4-9.7-7.3-19.8-9.6-30.3H63.5v.1zm88.7-113.801c-1.4-.4-3-.8-4.6-.8H15.5c-8.6 0-15.5 7-15.5 15.5 0 8.6 7 15.5 15.5 15.5h127.1c2.3-10.2 5.5-20.4 9.6-30.2zm-14.2 71.9c0-5.2.3-10.3.7-15.4H37.1c-8.6 0-15.5 7-15.5 15.5s7 15.5 15.5 15.5h101.5c-.3-5.1-.6-10.299-.6-15.6z"/><path d="M402.1 228.163c-2.6-4.3-8-6-12.5-3.7l-54.1 26.5c-6.7-2.7-14.5-2.4-21.2 1.5-11.3 6.7-15.1 21.3-8.4 32.6 6.7 11.3 21.3 15.1 32.6 8.4 6.7-4 10.7-10.7 11.5-17.8l49.3-34.7c4.2-2.901 5.4-8.401 2.8-12.8zm-65.5 47.299c-1.5 5.6-7.2 8.9-12.7 7.5-5.6-1.5-8.9-7.2-7.5-12.7 1.5-5.6 7.2-8.9 12.7-7.5 5.6 1.401 8.9 7.2 7.5 12.7zm23.8-62.2c4.7 2.7 10.7 1 13.3-3.7 2.7-4.7 1-10.7-3.7-13.3-4.7-2.7-10.6-1-13.3 3.7-1.8 3.2-1.6 6.9.1 9.8.9 1.3 2.1 2.601 3.6 3.5zm-34.4-9c5.4 0 9.7-4.4 9.7-9.8s-4.4-9.7-9.8-9.7-9.7 4.4-9.7 9.8c0 1.8.5 3.5 1.3 4.9 1.7 2.901 4.9 4.901 8.5 4.8zm1.3 137.401c-5.4.1-9.7 4.5-9.7 9.9 0 1.8.5 3.4 1.3 4.8 1.7 2.9 4.9 4.9 8.5 4.8 5.4-.1 9.7-4.5 9.6-9.9.1-5.201-4.3-9.6-9.7-9.6zm34.2-9.5c-4.6 2.7-6.2 8.7-3.4 13.3 2.7 4.7 8.7 6.2 13.4 3.4 4.6-2.7 6.2-8.7 3.4-13.3-2.8-4.601-8.8-6.101-13.4-3.4zm38.2-29c-4.7-2.6-10.7-1-13.3 3.7-1.8 3.2-1.6 6.8.1 9.8.8 1.4 2.1 2.7 3.6 3.5 4.7 2.7 10.7 1 13.3-3.7 2.6-4.7 1-10.7-3.7-13.3zm-141.9-29.4c0-5.4-4.5-9.7-9.8-9.7-5.4.1-9.7 4.5-9.7 9.9 0 1.8.5 3.4 1.3 4.8 1.7 2.9 4.9 4.9 8.5 4.8 5.5-.001 9.8-4.4 9.7-9.8zm-3.7 30.799c-4.6 2.7-6.2 8.7-3.4 13.3 2.7 4.6 8.7 6.2 13.4 3.4 4.6-2.7 6.1-8.7 3.4-13.4-2.8-4.5-8.8-6.099-13.4-3.3zm141.2-32.2c0 1.8.5 3.4 1.4 4.9 1.7 2.9 4.9 4.8 8.5 4.8 5.4 0 9.7-4.5 9.7-9.8 0-5.4-4.4-9.7-9.8-9.7-5.5 0-9.9 4.5-9.8 9.8zm-141.9-29.3c4.7 2.7 10.7 1 13.3-3.7 2.6-4.7 1-10.6-3.8-13.3-4.7-2.6-10.6-1-13.3 3.7-1.7 3.1-1.6 6.8.1 9.8.9 1.4 2.1 2.601 3.7 3.5zm38.1-29.1s.1 0 .1-.1c.1 0 .1 0 .1-.1h.1c4.6-2.7 6.1-8.7 3.4-13.3-2.7-4.7-8.7-6.2-13.4-3.5 0 0-.1 0-.1.1-.1 0-.1.1-.2.1-4.6 2.7-6.2 8.7-3.4 13.3 2.8 4.701 8.8 6.201 13.4 3.5zm1.3 118.9c-4.7-2.7-10.7-1-13.3 3.7-1.8 3.2-1.6 6.9.1 9.8.8 1.4 2.1 2.7 3.6 3.6 4.7 2.6 10.7.9 13.3-3.7 2.7-4.8 1-10.7-3.7-13.4z"/></svg>