<svg xmlns="http://www.w3.org/2000/svg" version="1" viewBox="0 0 316.46034 316.37966" overflow="visible" enable-background="new 0 0 611.8 618.2"><defs><marker orient="auto" id="c" overflow="visible"><path d="M-4 0l-2 2 7-2-7-2 2 2z" fill-rule="evenodd" stroke="#000" stroke-width=".4pt"/></marker><marker orient="auto" id="b" overflow="visible"><path d="M4 0l2-2-7 2 7 2-2-2z" fill-rule="evenodd" stroke="#000" stroke-width=".4pt"/></marker><filter id="a" color-interpolation-filters="sRGB"/></defs><path d="M285.593 204.515c-25.537 70.312-103.311 106.559-173.623 80.973-70.36-25.586-106.558-103.36-80.973-173.624C56.583 41.552 134.31 5.306 204.621 30.892c70.263 25.537 106.51 103.311 80.972 173.623z" opacity=".471" fill="none" stroke="#42899a" stroke-width="9.28" filter="url(#a)"/><path d="M282.562 198.378C257.025 268.69 179.251 304.936 108.94 279.35 38.579 253.765 2.38 175.99 27.966 105.727 53.552 35.415 131.278-.831 201.59 24.754c70.263 25.538 106.51 103.312 80.972 173.624z" opacity=".98" fill="none" stroke="#000" stroke-width="9.28"/><path fill="none" stroke="#071f1f" stroke-width="5.819" marker-start="url(#b)" marker-end="url(#c)" d="M45.226 201.373l220.417-98.302"/></svg>