<svg xmlns="http://www.w3.org/2000/svg" viewBox="0 0 370 370"><path d="M290.574 124.854c3.31-9.932 1.698-20.498-4.423-28.991-6.121-8.492-15.636-13.363-26.104-13.363h-98.211a32.137 32.137 0 0 0-30.502 21.925L79.479 244.996l-.053.149c-3.31 9.932-1.698 20.498 4.423 28.991 6.121 8.492 15.636 13.363 26.104 13.363h98.211a32.135 32.135 0 0 0 30.501-21.925l51.855-140.571.054-.149zM354.081 82.5a32.136 32.136 0 0 0-30.501 21.925l-51.855 140.571-.053.149c-3.31 9.932-1.698 20.499 4.423 28.991 6.122 8.492 15.636 13.363 26.105 13.363H370v-205l-15.919.001zM98.328 124.854c3.31-9.932 1.698-20.499-4.423-28.991S78.269 82.5 67.8 82.5H0v205h15.919a32.136 32.136 0 0 0 30.501-21.925l51.854-140.571.054-.15z"/></svg>