<svg xmlns="http://www.w3.org/2000/svg" viewBox="0 0 948.112 948.112"><path d="M39.068 674.506c-26.1 5-43.2 30.2-38.2 56.301 4.4 23 24.6 39 47.2 39 3 0 6.1-.301 9.1-.9l198-38c11.3-2.2 21.4-8.3 28.6-17.3l85-107.2-28.399-14.5c-21-10.6-35.601-29.8-40.601-53.1l-80.2 101.1-180.5 34.599z"/><circle cx="744.268" cy="151.106" r="105.4"/><path d="M514.268 124.706c-11.1-11.4-21.399-15.9-32.699-15.9-4.101 0-8.2.6-12.601 1.6l-180.899 42.9c-25 5.9-40.4 31-34.5 55.9 5.1 21.4 24.1 35.8 45.2 35.8 3.601 0 7.2-.4 10.801-1.3l154.1-36.5c10 11.1 60.1 65.4 69.2 75-63.7 68.2-127.4 136.3-191.101 204.5-1 1.101-1.899 2.2-2.8 3.3-18.6 23.7-12.899 60.9 15.101 75l33.899 17.301 161.4 82.399-101.4 164.3c-13.899 22.601-6.899 52.2 15.7 66.2 7.9 4.9 16.6 7.2 25.2 7.2 16.1 0 31.899-8.1 41-22.8l128.8-208.7c7.1-11.5 9-25.4 5.3-38.3-3.7-13-12.6-23.8-24.7-29.9l-132.3-67.3 139.101-148.8 105 89c8.699 7.399 19.399 11 30 11 11.399 0 22.8-4.2 31.699-12.4l120.5-112.3c18.801-17.5 19.9-46.9 2.4-65.7-9.2-9.8-21.6-14.8-34-14.8-11.3 0-22.7 4.1-31.6 12.4l-90.2 83.9c-.101.1-226.101-212.5-265.601-253z"/></svg>