<svg xmlns="http://www.w3.org/2000/svg" viewBox="0 0 76.07 76.07"><path d="M24.915 12.472c.016-.524.063-2.119 1.276-2.578 1.199-.451 2.359.708 2.58.945a1 1 0 0 1-1.458 1.369 2.4 2.4 0 0 0-.339-.288 3.841 3.841 0 0 0-.06.61c-.071 2.411 1.809 3.143 1.828 3.15.362.135.613.468.646.853.553 6.581 5.729 8.709 8.15 8.709s7.598-2.129 8.149-8.709a.998.998 0 0 1 .646-.853c.187-.074 1.898-.822 1.829-3.15a3.727 3.727 0 0 0-.06-.611 2.36 2.36 0 0 0-.34.289.999.999 0 1 1-1.458-1.369c.223-.237 1.391-1.395 2.581-.945 1.214.458 1.261 2.054 1.276 2.578.083 2.84-1.608 4.237-2.54 4.789-.846 6.88-6.34 9.983-10.084 9.983s-9.238-3.103-10.085-9.983c-.929-.552-2.62-1.948-2.537-4.789zm12.624 18.599s2.126-.47 2.126-2.366h-4.252c-.001 1.896 2.126 2.366 2.126 2.366zm-.057 18.667l4.154-3.375c-.436-2.168-2.42-15.081-2.564-15.292-.824.564-1.533.64-1.533.64s-.709-.077-1.533-.64c-.144.211-2.128 13.125-2.564 15.292l4.04 3.375zm7.035-37.409a.752.752 0 0 1 .75.763c-.013.694-.132 3.023-1.153 3.854-.652.53-1.671.859-2.657.859-.943 0-1.736-.299-2.232-.842-.535-.587-.89-1.811-1.093-2.725h-1.184c-.203.913-.558 2.138-1.093 2.725-.496.543-1.289.842-2.232.842-.986 0-2.005-.329-2.656-.859-1.022-.83-1.142-3.159-1.154-3.854a.752.752 0 0 1 .75-.763h5.845a.75.75 0 0 1 .569.262c.037.043.053.097.079.147h.97c.026-.05.042-.104.079-.147a.752.752 0 0 1 .569-.262h5.843zm-9.017 1.5h-4.142c.091.878.298 1.747.552 1.953.694.563 2.374.676 2.836.169.276-.304.564-1.257.754-2.122zm8.219 0h-4.142c.191.865.478 1.819.754 2.122.462.507 2.144.394 2.837-.169.247-.202.458-1.074.551-1.953zm1.844-5.009a1 1 0 1 0 1.994.148c.239-3.209-1.895-4.635-1.985-4.694a.993.993 0 0 0-1.369.286 1.005 1.005 0 0 0 .268 1.383c.05.036 1.24.885 1.092 2.877zm-16.374 1.492a1 1 0 0 0 1-1c0-4.721 3.803-4.949 4.218-4.959h8.559a1 1 0 1 0 0-2h-8.572c-2.146.029-6.204 1.52-6.204 6.959a.999.999 0 0 0 .999 1zM10.305 47.546c.847 6.88 6.341 9.983 10.085 9.983s9.238-3.103 10.084-9.983c.932-.551 2.623-1.948 2.54-4.789-.016-.524-.063-2.119-1.276-2.578-1.19-.449-2.359.708-2.581.945a.999.999 0 0 0 1.458 1.369 2.36 2.36 0 0 1 .34-.289c.026.136.052.333.06.611.069 2.328-1.643 3.076-1.829 3.15a1.001 1.001 0 0 0-.646.853c-.552 6.581-5.729 8.709-8.149 8.709s-7.598-2.129-8.15-8.709a.998.998 0 0 0-.646-.853c-.02-.007-1.899-.739-1.828-3.15a3.7 3.7 0 0 1 .06-.61c.115.081.242.186.336.285a1 1 0 1 0 1.461-1.365c-.221-.237-1.383-1.398-2.58-.945-1.214.458-1.261 2.053-1.276 2.578-.085 2.84 1.606 4.237 2.537 4.788zm7.929 11.445c0 1.896 2.09 2.366 2.09 2.366s2.09-.47 2.09-2.366h-4.18zm-1.031-.425a.997.997 0 0 0-1.33-.48l-2.174 1.021-.197-3.603a.998.998 0 1 0-1.996.109l.042.774C8.981 57.36 0 61.563 0 72.718a1 1 0 1 0 2 0c0-9.323 6.896-13.101 9.663-14.242l.122 2.219a1.001 1.001 0 0 0 1.423.851l3.516-1.65a1 1 0 0 0 .479-1.33zM22.5 29.705a.997.997 0 0 0 .734-.321c1.75-1.893 3.911-3.31 6.25-4.097a1 1 0 1 0-.639-1.896c-2.654.894-5.103 2.496-7.08 4.634a1 1 0 0 0 .735 1.68zM8.763 69.699a1 1 0 0 0-1 1v2.019a1 1 0 1 0 2 0v-2.019a1 1 0 0 0-1-1zm23.253 0a1 1 0 0 0-1 1v2.019a1 1 0 1 0 2 0v-2.019a1 1 0 0 0-1-1zm-2.899-13.312l.042-.774a1 1 0 0 0-.943-1.053 1.005 1.005 0 0 0-1.053.944l-.197 3.603-2.174-1.021a1 1 0 0 0-.85 1.81l3.516 1.65a1.005 1.005 0 0 0 .938-.047.997.997 0 0 0 .485-.804l.122-2.219c2.767 1.141 9.663 4.918 9.663 14.242a1 1 0 1 0 2 0c-.001-11.155-8.982-15.358-11.549-16.331zm-17.739-16.86a1 1 0 0 0 1.138-.84c.151-1.004.551-1.921 1.155-2.651a1 1 0 1 0-1.541-1.275c-.836 1.01-1.387 2.265-1.593 3.629a1.001 1.001 0 0 0 .841 1.137zm3.765-4.394h8.181c.411.01 4.019.229 4.019 4.71a1 1 0 1 0 2 0c0-5.244-3.916-6.682-6-6.71h-8.199a1 1 0 0 0-.001 2zm.794-2.769h8.083c.208-.002 5.096.021 5.675 4.975a1 1 0 0 0 1.986-.232c-.634-5.419-5.313-6.775-7.673-6.742h-8.071a1 1 0 1 0 0 1.999zm27.258 28.624a1 1 0 0 0-1 1v10.688a1 1 0 1 0 2 0V61.988a1 1 0 0 0-1-1zm25.085 0a1 1 0 0 0-1 1v10.688a1 1 0 1 0 2 0V61.988a1 1 0 0 0-1-1zM55.793 19.6h.004c5.266 0 9.862 4.017 10.837 9.298.167.006.337.031.509.095 1.214.458 1.261 2.053 1.276 2.578.083 2.84-1.608 4.237-2.539 4.789-.847 6.88-6.341 9.983-10.085 9.983S46.557 43.24 45.71 36.36c-.931-.551-2.622-1.948-2.539-4.789.016-.524.063-2.119 1.276-2.578.172-.065.342-.089.509-.095.975-5.28 5.572-9.298 10.837-9.298zm-8.947 10.16c.08.075.147.14.183.178a1.001 1.001 0 0 1-1.461 1.367 2.39 2.39 0 0 0-.337-.286 3.843 3.843 0 0 0-.06.611c-.071 2.411 1.809 3.143 1.828 3.15.362.135.613.468.646.853.553 6.581 5.729 8.709 8.15 8.709s7.598-2.129 8.15-8.709a.998.998 0 0 1 .646-.853c.187-.074 1.897-.822 1.828-3.15a3.7 3.7 0 0 0-.06-.61 2.468 2.468 0 0 0-.339.288.999.999 0 1 1-1.458-1.369 3.71 3.71 0 0 1 .183-.179c-.596-4.593-4.477-8.159-8.948-8.159h-.003c-4.471-.001-8.353 3.565-8.948 8.159zm2.374 6.072c-1.281-1.414-1.076-3.667-1.066-3.763a.748.748 0 0 1 .746-.676h13.792c.386 0 .709.292.746.677.01.095.215 2.349-1.067 3.763-.659.728-1.563 1.096-2.688 1.096-1.146 0-2.063-.375-2.723-1.114a3.58 3.58 0 0 1-.569-.904h-1.192a3.563 3.563 0 0 1-.569.904c-.66.739-1.576 1.114-2.723 1.114-1.124-.001-2.028-.369-2.687-1.097zm6.748-2.422a6.548 6.548 0 0 1-.044-.518h-.257a6.201 6.201 0 0 1-.045.518h.346zm1.456-.517c.031.569.169 1.381.658 1.927.368.41.892.609 1.601.609.69 0 1.205-.196 1.573-.6.497-.545.646-1.36.687-1.936h-4.519zm-7.776 0c.039.575.189 1.391.686 1.936.368.403.883.6 1.573.6.711 0 1.235-.201 1.604-.613.484-.542.622-1.353.654-1.922h-4.517zM76.07 61.531v11.176a1 1 0 1 1-2 0V61.531c0-5.992-2.742-9.704-5.374-11.896-4.522 4.711-8.86 7.105-12.901 7.105-4.072 0-8.447-2.431-13.007-7.215a14.527 14.527 0 0 0-5.174 9.314 1 1 0 1 1-1.982-.266c.85-6.332 5.184-11.542 11.311-13.597a1 1 0 0 1 1.08.301c.04.047 4.038 4.692 7.773 4.692 3.728 0 7.611-4.635 7.65-4.682a.998.998 0 0 1 1.059-.32c.114.035 11.565 3.629 11.565 16.564zm-9.008-13.096a15.924 15.924 0 0 0-2.549-1.336c-1.27 1.373-4.881 4.872-8.718 4.872-3.845 0-7.542-3.519-8.827-4.878-.893.342-1.736.765-2.528 1.254 4.089 4.231 7.909 6.395 11.356 6.395 3.42-.001 7.211-2.137 11.266-6.307zM17.643 67.663l5.844 2.785c-.175-1.012-.379-2.19-.585-3.369l-4.728-2.43c-.167.938-.35 1.981-.531 3.014zm1.175-6.307c-.031.046-.13.522-.266 1.238l3.914 2.012c-.32-1.788-.58-3.168-.635-3.249-.81.564-1.507.64-1.507.64s-.696-.077-1.506-.641zm-2.05 11.362h6.837l-6.316-3.009c-.226 1.299-.417 2.414-.521 3.009zm3.736-29.593v4.719h-1.229a1 1 0 1 0 0 2h2.229a1 1 0 0 0 1-1v-5.719a1 1 0 1 0-2 0z"/></svg>